<?xml version="1.0" encoding="UTF-8"?>
<svg id="Layer_1" xmlns="http://www.w3.org/2000/svg" version="1.1" viewBox="0 0 170.1 156.5">
  <!-- Generator: Adobe Illustrator 29.3.1, SVG Export Plug-In . SVG Version: 2.1.0 Build 151)  -->
  <defs>
    <style>
      .st0 {
        fill: none;
        stroke: #000;
        stroke-miterlimit: 10;
        stroke-width: .2px;
      }
    </style>
  </defs>
  <path class="st0" d="M86,136.4c-34.8,0-63-28.2-63-63"/>
  <path class="st0" d="M85,17.4c34.8,0,63,28.2,63,63"/>
  <g>
    <path d="M45.6,48.6c.6.2,1.2.6,1.8,1.1.2.1.3.2.4.2.3,0,.5-.4.6-1.3h.5c0,.9,0,2.6,0,5.1h-.5c-.2-.9-.3-1.6-.4-2.1-.1-.4-.3-.8-.7-1.2-.4-.6-1-1-1.7-1.3s-1.4-.4-2.2-.4-1.8.3-2.5.9-1.3,1.5-1.7,2.7-.6,2.5-.6,4.1.2,3,.6,4.1,1,2,1.8,2.6c.8.6,1.6.9,2.6.9s1.4-.1,2.1-.4c.7-.3,1.2-.7,1.6-1.2.3-.4.5-.8.6-1.3s.3-1.2.4-2.2h.5c0,2.5,0,4.3,0,5.3h-.5c0-.5-.1-.8-.2-1s-.2-.3-.3-.3-.3,0-.5.2c-.7.5-1.3.8-1.9,1.1s-1.3.4-2.2.4c-1.4,0-2.6-.3-3.7-.9s-1.9-1.5-2.4-2.7c-.6-1.2-.9-2.6-.9-4.3s.3-3,.9-4.3,1.4-2.2,2.5-2.9c1.1-.7,2.3-1,3.6-1s1.6.1,2.2.4h0Z"/>
    <path d="M63.4,49.2c1.1.6,1.9,1.5,2.4,2.7s.9,2.6.9,4.3-.3,3-.9,4.3-1.4,2.2-2.5,2.9c-1.1.7-2.3,1-3.6,1s-2.6-.3-3.7-.9-1.9-1.5-2.4-2.7-.9-2.6-.9-4.3.3-3,.9-4.3,1.4-2.2,2.5-2.9c1.1-.7,2.3-1,3.6-1s2.6.3,3.7.9ZM57.2,49.6c-.7.7-1.3,1.6-1.7,2.7s-.6,2.5-.6,4,.2,2.9.7,4c.4,1.2,1,2.1,1.8,2.7s1.6.9,2.5.9,1.8-.3,2.5-1c.7-.7,1.3-1.6,1.7-2.7s.6-2.5.6-4-.2-2.9-.7-4c-.4-1.2-1-2.1-1.8-2.7s-1.6-.9-2.5-.9-1.8.3-2.5,1Z"/>
    <path d="M80.9,49.2c1.1.6,1.9,1.5,2.4,2.7s.9,2.6.9,4.3-.3,3-.9,4.3-1.4,2.2-2.5,2.9c-1.1.7-2.3,1-3.6,1s-2.6-.3-3.7-.9-1.9-1.5-2.4-2.7-.9-2.6-.9-4.3.3-3,.9-4.3,1.4-2.2,2.5-2.9c1.1-.7,2.3-1,3.6-1s2.6.3,3.7.9ZM74.7,49.6c-.7.7-1.3,1.6-1.7,2.7s-.6,2.5-.6,4,.2,2.9.7,4c.4,1.2,1,2.1,1.8,2.7s1.6.9,2.5.9,1.8-.3,2.5-1c.7-.7,1.3-1.6,1.7-2.7s.6-2.5.6-4-.2-2.9-.7-4c-.4-1.2-1-2.1-1.8-2.7s-1.6-.9-2.5-.9-1.8.3-2.5,1Z"/>
    <path d="M101.2,49c-.5,0-.9.1-1.1.2s-.4.3-.5.6-.1.7-.1,1.3v13.1h-.5l-9.2-14.3v11.6c0,.6,0,1,.1,1.3s.3.5.6.6c.3.1.7.2,1.3.2v.4c-.5,0-1.3,0-2.2,0s-1.6,0-2,0v-.4c.5,0,.9-.1,1.1-.2s.4-.3.5-.6.1-.7.1-1.3v-10.7c0-.6,0-1-.1-1.2s-.2-.4-.5-.5-.6-.2-1.2-.2v-.4c.5,0,1.2,0,2,0s1.2,0,1.7,0l7.8,12v-9.4c0-.6,0-1-.1-1.3s-.3-.5-.6-.6c-.3-.1-.7-.2-1.3-.2v-.4c.5,0,1.3,0,2.2,0s1.6,0,2.1,0v.4h0Z"/>
    <path d="M115.5,64.2c-1,0-2.7,0-5,0s-4.9,0-6.4,0v-.4c.5,0,.9,0,1.2-.2.2,0,.4-.3.5-.5s.1-.7.1-1.2v-10.9c0-.6,0-1-.1-1.2s-.2-.4-.5-.5-.6-.2-1.2-.2v-.4c1.4,0,3.6,0,6.4,0s3.7,0,4.6,0c-.1,1-.1,1.8-.1,2.6s0,1,0,1.4h-.5c-.1-.9-.2-1.7-.4-2.1-.2-.5-.4-.8-.8-1s-1-.3-1.7-.3h-1.8c-.5,0-.9,0-1.2.1-.2,0-.4.2-.5.5s-.1.7-.1,1.2v5.2h1.4c.5,0,.9-.1,1.2-.4s.5-.5.6-.9.2-.7.2-1.2v-.4h.6c0,.6,0,1.3,0,2.1v1.1c0,.8,0,1.8.1,3.1h-.5c0,0,0-.5-.1-1.1s-.3-1.1-.6-1.4-.8-.5-1.4-.5h-1.4v5.3c0,.6,0,1,.1,1.2,0,.2.2.4.5.5s.6.1,1.2.1h1.6c.9,0,1.6-.1,2.1-.4s.8-.6,1-1.2c.2-.5.4-1.3.5-2.4h.5c0,.4,0,.9,0,1.6s0,1.8.1,2.8h0Z"/>
    <path d="M130.7,48.6v.4c-.3,0-.6.3-.9.6-.3.3-.6.8-.9,1.4l-3.4,6.8v4c0,.6,0,1,.1,1.2,0,.2.2.4.5.5.2,0,.6.2,1.2.2v.4c-.7,0-1.6,0-2.8,0s-2.2,0-2.8,0v-.4c.5,0,.9,0,1.2-.2.2,0,.4-.3.5-.5s.1-.7.1-1.2v-3.3l-4.5-8.2c-.3-.5-.5-.8-.7-1-.2-.2-.4-.2-.6-.2v-.5c.6,0,1.2,0,1.9,0,1.4,0,2.4,0,3.1,0v.5c-1,0-1.5.3-1.5.8s0,.5.2.8l3.6,7,2.8-5.6c.4-.8.6-1.4.6-1.9s-.2-.7-.5-.9c-.3-.2-.8-.3-1.4-.3v-.4c.8,0,1.7,0,2.5,0s1.2,0,1.6,0h0Z"/>
    <path d="M67.4,75.5c.6.5.9,1.3.9,2.2s-.2,1.3-.6,1.8-.9.9-1.5,1.2c-.6.3-1.6.7-3.3,1.1.8.3,1.4.8,1.8,1.5s.6,1.4.6,2.2-.3,1.8-.8,2.6-1.3,1.5-2.3,1.9-2.2.7-3.6.7-2.5-.2-3.6-.7c-1.1-.4-2-1.1-2.6-1.9-.7-.8-1-1.8-1-2.9s.2-1.8.7-2.4c.5-.7,1-1.2,1.6-1.5s1.2-.6,1.7-.7c-.7-.3-1.3-.7-1.7-1.2-.4-.5-.6-1.1-.6-1.6s.1-.9.4-1.3c.3-.4.7-.8,1.3-1,.6-.3,1.2-.4,2-.4s1.8.2,2.3.7c.3.2.5.5.6.7.1.3.2.5.2.8s-.1.6-.4.8c-.2.2-.5.3-.9.3s-.6,0-.8-.3c-.2-.2-.3-.5-.3-.8s.1-.6.3-.8c.2-.2.5-.4.8-.4,0-.2-.3-.4-.6-.5-.3-.1-.7-.2-1.1-.2-.8,0-1.4.2-1.8.7s-.7,1.1-.7,1.9.4,1.8,1.1,2.5c.5,0,1-.1,1.4-.1s.5,0,.6.1c.2,0,.2.2.2.4s0,.2-.2.3-.3.1-.4.1-.5,0-.7-.1-.5-.2-.9-.3c-1.9.6-2.9,1.8-2.9,3.6s.3,1.8.8,2.6c.5.7,1.2,1.3,2.1,1.6s1.9.6,3,.6,2-.2,2.9-.5c.9-.3,1.6-.8,2.1-1.4s.8-1.3.8-2.1-.2-1.2-.5-1.8-.9-1.1-1.8-1.4c-1.1.3-2,.6-2.5.8-.6.2-1.1.5-1.4.8s-.5.7-.5,1.1.2.9.7,1.3c.4.3.9.5,1.4.5s.5,0,.8-.1.5-.2.5-.3c-.3,0-.5-.2-.7-.3-.2-.2-.3-.4-.3-.8s.1-.6.3-.8c.2-.2.5-.3.9-.3s.6.1.8.3c.2.2.3.5.3.9,0,.6-.3,1.1-.8,1.4s-1.1.5-1.8.5-1.3-.2-1.9-.7-.8-1.1-.8-1.9.2-1.4.8-1.9c.5-.5,1.3-1,2.3-1.3l1.6-.5c.9-.2,1.6-.5,2.2-.7s1.1-.4,1.6-.6c.7-.3,1.2-.7,1.5-1,.3-.3.4-.7.4-1.1,0-.6-.2-1.1-.8-1.6s-1.1-.7-1.8-.7-.6,0-.7.2c.2,0,.3.2.4.4s.2.4.2.6c0,.3-.1.6-.4.8s-.5.3-.9.3-.6,0-.8-.3c-.2-.2-.3-.5-.3-.8,0-.5.2-.9.7-1.2s1.1-.4,1.7-.4c.9,0,1.7.3,2.3.8h0Z"/>
    <path d="M87.1,75c.6.2,1.2.6,1.8,1.1.2.1.3.2.4.2.3,0,.5-.4.6-1.3h.5c0,.9,0,2.6,0,5.1h-.5c-.2-.9-.3-1.6-.4-2.1-.1-.4-.3-.8-.7-1.2-.4-.6-1-1-1.7-1.3s-1.4-.4-2.2-.4-1.8.3-2.5.9-1.3,1.5-1.7,2.7-.6,2.5-.6,4.1.2,3,.6,4.1,1,2,1.8,2.6c.8.6,1.6.9,2.6.9s1.4-.1,2.1-.4c.7-.3,1.2-.7,1.6-1.2.3-.4.5-.8.6-1.3s.3-1.2.4-2.2h.5c0,2.5,0,4.3,0,5.3h-.5c0-.5-.1-.8-.2-1s-.2-.3-.3-.3-.3,0-.5.2c-.7.5-1.3.8-1.9,1.1s-1.3.4-2.2.4c-1.4,0-2.6-.3-3.7-.9s-1.9-1.5-2.4-2.7-.9-2.6-.9-4.3.3-3,.9-4.3,1.4-2.2,2.5-2.9c1.1-.7,2.3-1,3.6-1s1.6.1,2.2.4h0Z"/>
    <path d="M104.9,75.6c1.1.6,1.9,1.5,2.4,2.7s.9,2.6.9,4.3-.3,3-.9,4.3-1.4,2.2-2.5,2.9-2.3,1-3.6,1-2.6-.3-3.7-.9-1.9-1.5-2.4-2.7-.9-2.6-.9-4.3.3-3,.9-4.3,1.4-2.2,2.5-2.9c1.1-.7,2.3-1,3.6-1s2.6.3,3.7.9ZM98.6,76c-.7.7-1.3,1.6-1.7,2.7s-.6,2.5-.6,4,.2,2.9.7,4c.4,1.2,1,2.1,1.8,2.7s1.6.9,2.5.9,1.8-.3,2.5-1c.7-.7,1.3-1.6,1.7-2.7s.6-2.5.6-4-.2-2.9-.7-4c-.4-1.2-1-2.1-1.8-2.7s-1.6-.9-2.5-.9-1.8.3-2.5,1Z"/>
    <path d="M113.9,88.5c.3.3.4.6.4,1s-.1.7-.4,1-.6.4-1,.4-.7-.1-1-.4-.4-.6-.4-1,.1-.7.4-1,.6-.4,1-.4.7.1,1,.4Z"/>
  </g>
  <g>
    <path d="M51.5,105.8v2.3h2.4v.5h-2.4v2.4h2.7v.5h-3.3v-6.3h3.3v.5h-2.7Z"/>
    <path d="M60.9,105.3l-2.4,6.3h-.7l-2.4-6.3h.7l2.1,5.6,2.1-5.6h.7Z"/>
    <path d="M63,105.8v2.3h2.4v.5h-2.4v2.4h2.7v.5h-3.3v-6.3h3.3v.5h-2.7Z"/>
    <path d="M72.1,111.6h-.6l-3.5-5.3v5.3h-.6v-6.3h.6l3.5,5.3v-5.3h.6v6.3Z"/>
    <path d="M77.7,105.3v.5h-1.8v5.8h-.6v-5.8h-1.8v-.5s4.1,0,4.1,0Z"/>
    <path d="M85.7,108.4c-.3.3-.9.5-1.6.5h-1.3v2.7h-.6v-6.3h1.9c.7,0,1.2.2,1.6.5.4.3.5.8.5,1.3s-.2,1-.5,1.3h0ZM85.6,107.1c0-.4-.1-.7-.3-.9-.2-.2-.6-.3-1.1-.3h-1.3v2.5h1.3c1,0,1.5-.4,1.5-1.3h0Z"/>
    <path d="M88.4,111h2.3v.5h-2.9v-6.3h.6v5.8Z"/>
    <path d="M95.7,110.1h-2.9l-.6,1.5h-.7l2.3-6.2h.7l2.3,6.2h-.7l-.6-1.5h0ZM95.5,109.5l-1.2-3.4-1.2,3.4s2.5,0,2.5,0Z"/>
    <path d="M103.1,111.6h-.6l-3.5-5.3v5.3h-.6v-6.3h.6l3.5,5.3v-5.3h.6v6.3Z"/>
    <path d="M109.8,111.6h-.6l-3.5-5.3v5.3h-.6v-6.3h.6l3.5,5.3v-5.3h.6v6.3Z"/>
    <path d="M112.4,105.3v6.3h-.6v-6.3h.6Z"/>
    <path d="M119,111.6h-.6l-3.5-5.3v5.3h-.6v-6.3h.6l3.5,5.3v-5.3h.6v6.3Z"/>
    <path d="M125.9,107.1c-.2-.4-.4-.7-.8-1-.4-.2-.8-.4-1.3-.4s-.9.1-1.3.3-.7.5-.9.9c-.2.4-.3.9-.3,1.4s.1,1,.3,1.4.5.7.9.9.8.3,1.3.3.8,0,1.2-.3c.4-.2.6-.5.9-.8.2-.4.3-.8.4-1.2h-2.6v-.5h3.3v.5c0,.6-.2,1.1-.4,1.5s-.6.8-1.1,1.1-1,.4-1.5.4-1.1-.1-1.6-.4-.9-.6-1.1-1.1c-.3-.5-.4-1-.4-1.7s.1-1.2.4-1.7c.3-.5.6-.9,1.1-1.1s1-.4,1.6-.4,1.3.2,1.8.5c.5.3.9.8,1.1,1.4h-.7,0Z"/>
  </g>
</svg>