<?xml version="1.0" encoding="UTF-8"?>
<svg xmlns="http://www.w3.org/2000/svg" viewBox="0 0 471.72 612.42">
  <defs>
    <style>
      .cls-1, .cls-2 {
        font-family: BuenaParkJF, BuenaParkJF;
        font-size: 12px;
      }

      .cls-3, .cls-4, .cls-5, .cls-6, .cls-2, .cls-7 {
        fill: #e0ab81;
      }

      .cls-3, .cls-8 {
        letter-spacing: -.02em;
      }

      .cls-9, .cls-10 {
        fill: #f5bdc2;
      }

      .cls-4, .cls-11 {
        letter-spacing: -.04em;
      }

      .cls-12, .cls-13 {
        fill: #f0b74a;
      }

      .cls-14, .cls-15, .cls-16, .cls-17, .cls-18, .cls-19, .cls-20, .cls-10, .cls-13, .cls-21, .cls-22, .cls-7, .cls-23 {
        stroke: #fff;
      }

      .cls-14, .cls-15, .cls-16, .cls-22 {
        stroke-miterlimit: 10;
      }

      .cls-14, .cls-24, .cls-21 {
        fill: #e77e80;
      }

      .cls-15 {
        fill: #ededed;
      }

      .cls-16, .cls-25, .cls-23 {
        fill: #8e8e8e;
      }

      .cls-26 {
        letter-spacing: -.03em;
      }

      .cls-17 {
        fill: #fdb740;
      }

      .cls-27 {
        letter-spacing: 0em;
      }

      .cls-27, .cls-28 {
        fill: #231f20;
      }

      .cls-18, .cls-29 {
        fill: #ccc;
      }

      .cls-30, .cls-20 {
        fill: #b8b8b8;
      }

      .cls-28 {
        font-family: MyriadPro-Regular, 'Myriad Pro';
        font-size: 8px;
      }

      .cls-19 {
        fill: #f8b8c1;
      }

      .cls-6, .cls-31 {
        letter-spacing: -.05em;
      }

      .cls-32 {
        letter-spacing: -.08em;
      }

      .cls-33 {
        fill: #a8a8a8;
      }

      .cls-22 {
        fill: #fce5ef;
      }
    </style>
  </defs>
  <g id="LogoIcon">
    <g id="Icon">
      <g>
        <g>
          <ellipse class="cls-15" cx="300.46" cy="23.18" rx="3.97" ry="14.46" transform="translate(28.67 153.34) rotate(-30)"/>
          <ellipse class="cls-16" cx="296.49" cy="26.58" rx="3.97" ry="14.46" transform="translate(68.05 217.44) rotate(-45)"/>
          <ellipse class="cls-16" cx="314.52" cy="25.41" rx="14.46" ry="3.97" transform="translate(114.93 269.81) rotate(-55.38)"/>
          <ellipse class="cls-15" cx="316.79" cy="27.68" rx="14.46" ry="3.97" transform="translate(61.58 217.39) rotate(-41.62)"/>
        </g>
        <g>
          <rect class="cls-33" x="289.23" y="57.27" width="17.11" height="17.8"/>
          <rect class="cls-30" x="307.56" y="57.26" width="17.11" height="17.8"/>
          <rect class="cls-25" x="307.56" y="38.26" width="17.11" height="17.8"/>
          <rect class="cls-29" x="289.23" y="38.26" width="17.11" height="17.8"/>
        </g>
        <path class="cls-18" d="m315.57,51.54c-2.38-2.38-6.29-2.42-8.72-.09-2.43-2.33-6.33-2.29-8.72.09-2.38,2.38-2.42,6.29-.09,8.72l8.8,8.8,8.8-8.8c2.33-2.43,2.29-6.33-.09-8.72Z"/>
      </g>
      <path class="cls-23" d="m305.26,6.18l-2.35,2.09-2.09-2.35c-.55-.65-.48-1.63.15-2.19s1.62-.52,2.2.11c.65-.55,1.63-.48,2.19.15s.52,1.62-.11,2.2Z"/>
      <path class="cls-18" d="m307.68,17.4l-2.66,1.68-1.68-2.66c-.44-.73-.21-1.69.51-2.14s1.68-.25,2.15.46c.73-.44,1.69-.21,2.14.51s.25,1.68-.46,2.15Z"/>
      <path class="cls-20" d="m312.21,10.15l-1.37,2.83-2.83-1.37c-.76-.39-1.07-1.32-.7-2.08s1.3-1.1,2.07-.74c.39-.76,1.32-1.07,2.08-.7s1.1,1.3.74,2.07Z"/>
    </g>
    <g id="Layer_6" data-name="Layer 6">
      <g>
        <g>
          <ellipse class="cls-22" cx="193.73" cy="24.35" rx="3.97" ry="14.46" transform="translate(13.78 100.12) rotate(-30)"/>
          <ellipse class="cls-14" cx="189.76" cy="27.75" rx="3.97" ry="14.46" transform="translate(35.95 142.31) rotate(-45)"/>
          <ellipse class="cls-14" cx="207.78" cy="26.58" rx="14.46" ry="3.97" transform="translate(67.86 182.47) rotate(-55.38)"/>
          <ellipse class="cls-22" cx="210.05" cy="28.85" rx="14.46" ry="3.97" transform="translate(33.86 146.79) rotate(-41.62)"/>
        </g>
        <g>
          <rect class="cls-5" x="182.5" y="58.44" width="17.11" height="17.8"/>
          <rect class="cls-12" x="200.82" y="58.43" width="17.11" height="17.8"/>
          <rect class="cls-24" x="200.82" y="39.43" width="17.11" height="17.8"/>
          <rect class="cls-9" x="182.5" y="39.43" width="17.11" height="17.8"/>
        </g>
        <path class="cls-10" d="m208.83,52.72c-2.38-2.38-6.29-2.42-8.72-.09-2.43-2.33-6.33-2.29-8.72.09-2.38,2.38-2.42,6.29-.09,8.72l8.8,8.8,8.8-8.8c2.33-2.43,2.29-6.33-.09-8.72Z"/>
      </g>
      <path class="cls-21" d="m213.52,3.35l-2.35,2.09-2.09-2.35c-.55-.65-.48-1.63.15-2.19s1.62-.52,2.2.11c.65-.55,1.63-.48,2.19.15s.52,1.62-.11,2.2Z"/>
      <path class="cls-10" d="m215.94,14.58l-2.66,1.68-1.68-2.66c-.44-.73-.21-1.69.51-2.14s1.68-.25,2.15.46c.73-.44,1.69-.21,2.14.51s.25,1.68-.46,2.15Z"/>
      <path class="cls-13" d="m220.47,7.33l-1.37,2.83-2.83-1.37c-.76-.39-1.07-1.32-.7-2.08s1.3-1.1,2.07-.74c.39-.76,1.32-1.07,2.08-.7s1.1,1.3.74,2.07Z"/>
    </g>
    <g id="Logo">
      <g>
        <ellipse class="cls-15" cx="246.09" cy="149.66" rx="7.23" ry="26.32" transform="translate(-41.86 143.1) rotate(-30)"/>
        <ellipse class="cls-16" cx="238.87" cy="155.85" rx="7.23" ry="26.32" transform="translate(-40.24 214.55) rotate(-45)"/>
        <ellipse class="cls-16" cx="271.67" cy="153.72" rx="26.32" ry="7.23" transform="translate(-9.17 289.96) rotate(-55.38)"/>
        <ellipse class="cls-15" cx="275.8" cy="157.85" rx="26.32" ry="7.23" transform="translate(-35.22 223.02) rotate(-41.62)"/>
      </g>
      <g>
        <rect class="cls-33" x="225.65" y="211.71" width="31.15" height="32.39"/>
        <rect class="cls-30" x="259.01" y="211.7" width="31.15" height="32.39"/>
        <rect class="cls-25" x="259.01" y="177.11" width="31.15" height="32.39"/>
        <rect class="cls-29" x="225.65" y="177.11" width="31.15" height="32.39"/>
      </g>
      <path class="cls-18" d="m273.59,201.29c-4.34-4.34-11.44-4.41-15.86-.16-4.42-4.25-11.53-4.17-15.86.16-4.34,4.34-4.41,11.44-.16,15.86l16.03,16.03,16.03-16.03c4.25-4.42,4.17-11.53-.16-15.86Z"/>
      <path class="cls-23" d="m254.82,118.71l-4.27,3.8-3.8-4.27c-1-1.18-.88-2.97.28-3.99s2.95-.94,4,.2c1.18-1,2.97-.88,3.99.28s.94,2.95-.2,4Z"/>
      <path class="cls-18" d="m259.23,139.15l-4.83,3.06-3.06-4.83c-.8-1.32-.39-3.07.92-3.9,1.31-.83,3.06-.45,3.91.84,1.32-.8,3.07-.39,3.9.92s.45,3.06-.84,3.91Z"/>
      <path class="cls-20" d="m267.47,125.95l-2.49,5.15-5.15-2.49c-1.38-.7-1.95-2.4-1.27-3.79s2.36-2,3.77-1.35c.7-1.38,2.4-1.95,3.79-1.27s2,2.36,1.35,3.77Z"/>
    </g>
    <g>
      <path class="cls-23" d="m33.3,244.6H3.06c-1.44,0-2.32-1.2-2.32-2.32,0-1.04.72-1.92,2.32-1.92,0,0,4.16-.32,4.16-3.52v-48.64c0-3.28-4.48-3.28-4.48-3.28-1.52,0-2.24-1.04-2.24-2.08,0-1.12.8-2.24,2.24-2.24h28.08c9.28,0,16,3.36,16,14.24,0,9.12-4,13.04-9.12,13.76,5.52.64,13.6,7.2,13.44,17.04-.16,8.96-6.24,18.96-17.84,18.96Zm-4.88-58.64l-6.56-.08c-1.36,0-1.92.56-1.92,1.92l-.08,19.28h8.16c5.92,0,8.24-5.36,8.24-10.56.08-5.6-2.24-10.56-7.84-10.56Zm.16,27.12h-8.64v24c0,1.28.72,1.84,1.68,1.84h7.04c9.04,0,10.64-6.96,10.56-14,0-6.72-3.68-11.84-10.64-11.84Z"/>
      <path class="cls-23" d="m71.3,245.8c-11.52,0-20.4-9.68-20.4-22.4s9.04-22.32,20.4-22.32,20.72,9.92,20.72,22.32-9.28,22.4-20.72,22.4Zm0-37.12c-5.84,0-7.2,6.96-7.2,15.6,0,7.84,1.76,14.56,7.36,14.56,5.92,0,7.68-6.8,7.68-15.12s-1.68-15.04-7.84-15.04Z"/>
      <path class="cls-23" d="m138.58,244.6h-23.28c-1.36,0-2.16-.96-2.32-2-.16-1.12.56-2.32,2.32-2.24,0,0,3.52-1.12,1.44-3.52l-6.56-7.36-6.64,7.36c-2.16,2.4,1.44,3.52,1.44,3.52,1.76-.08,2.4,1.2,2.24,2.32-.16,1.04-.96,1.92-2.24,1.92h-15.92c-1.44,0-2.16-.96-2.16-2-.08-1.12.64-2.32,2.16-2.32,0,0,1.44.16,4.8-3.52l11.52-12.72-12.64-14.24c-2.96-3.28-4.48-3.28-4.48-3.28-1.6,0-2.32-1.12-2.24-2.16,0-1.12.8-2.16,2.24-2.16h22.32c1.6,0,2.24.8,2.32,1.76.08,1.2-.8,2.56-2.32,2.56,0,0-3.2.96-.8,3.6l6.32,7.04,6.32-7.04c2.32-2.64-.88-3.6-.88-3.6-1.36,0-2.24-1.2-2.32-2.32,0-1.04.64-2,2.32-2h15.04c1.2,0,1.92.8,2.16,1.68.24,1.2-.4,2.64-2.16,2.64,0,0-1.6,0-4.48,3.28l-11.28,12.72,12.88,14.24c3.36,3.68,4.88,3.52,4.88,3.52,1.36,0,2.08,1.04,2.16,2.08,0,1.12-.64,2.24-2.16,2.24Z"/>
      <path class="cls-23" d="m176.18,229.56c0,6-5.04,16.24-19.92,16.24-11.68,0-20.64-9.68-20.64-22.4s9.12-22.32,20.64-22.32,16.8,7.12,18.08,16l-25.28,11.2c.56,7.2,4.32,10.72,9.84,10.72,4.48,0,8.24-2.96,8.24-6.16,0-.88-.64-1.84-1.6-1.84-.56,0-.96.48-1.44.48-.56,0-1.04-.48-1.04-1.68,0-2.8,2.4-6.64,6.72-6.64,2.08,0,4.24.88,5.44,2.8.64,1.04.96,2.24.96,3.6Zm-12.8-16.08c-.88-4.08-3.92-5.6-6.16-5.6-4.08,0-8.16,3.84-8.4,12.08l14.56-6.48Z"/>
      <path class="cls-23" d="m218.9,189.16s-2.8,0-2.8,3.28v44.4c0,3.2,3.2,3.52,3.2,3.52,1.12,0,1.84.8,1.84,1.84,0,1.2-.64,2.4-1.84,2.4h-15.92l.08-2.72c-1.68,1.6-5.44,3.52-9.2,3.52-11.36,0-18.4-10.4-18.4-22.48s5.92-21.84,17.28-21.84c3.76,0,7.28,1.12,10.24,2.96l.08-11.6c0-5.6-5.44-1.6-5.36-5.44,0-1.04.8-2.16,2.32-2.16h18.48c1.44,0,2.24,1.12,2.24,2.16s-.56,2.16-2.24,2.16Zm-22.08,18.56c-6.16,0-7.76,6.64-7.76,15.04s1.76,15.12,7.68,15.12c5.12,0,6.48-7.36,6.48-14.8s-1.52-15.36-6.4-15.36Z"/>
    </g>
    <g>
      <path class="cls-29" d="m338.9,245.92c-.8,1.52-2.16,1.68-3.12,1.2-.8-.48-1.28-1.44-.88-2.4,0,0,1.6-1.12-4.8-1.12h-35.04c-1.44,0-2.32-1.12-2.32-2.24,0-1.04.72-2.08,2.32-2,0,0,4.16-.32,4.16-3.52v-48.64c0-3.28-4.48-3.28-4.48-3.28-1.6,0-2.32-1.12-2.24-2.24.08-1.04.88-2.08,2.24-2.08h21.76c1.6,0,2.32.96,2.24,2,0,1.12-.88,2.32-2.24,2.32,0,0-4.56.08-4.56,3.6l-.08,46.4h24.64c4.48,0,7.04-6.24,7.04-6.24.88-1.28,2-1.52,2.88-1.12.96.48,1.6,1.92.72,3.6l-8.24,15.76Z"/>
      <path class="cls-29" d="m367.78,244.8c-11.52,0-20.4-9.68-20.4-22.4s9.04-22.32,20.4-22.32,20.72,9.92,20.72,22.32-9.28,22.4-20.72,22.4Zm0-37.12c-5.84,0-7.2,6.96-7.2,15.6,0,7.84,1.76,14.56,7.36,14.56,5.92,0,7.68-6.8,7.68-15.12s-1.68-15.04-7.84-15.04Z"/>
      <path class="cls-29" d="m435.46,203.44c0,1.04-.64,2.08-2.24,2.08,0,0-.24-.08-.56-.08-.8.08-2.72.4-3.92,3.36l-14.16,34.8h-11.36l-13.92-34.8c-1.2-2.88-2.96-3.36-3.92-3.36-.32,0-.56.08-.56.08-1.52,0-2.24-1.04-2.24-2.08,0-1.12.8-2.24,2.24-2.24h19.2c1.6,0,2.24.96,2.24,2,0,3.04-3.6,1.2-3.6,4.08,0,.48.16,1.12.48,1.84l8.96,21.36,8.88-21.36c.32-.8.48-1.44.48-1.92,0-2.8-3.6-.96-3.6-4.08,0-.96.64-1.92,2.32-1.92h13.04c1.28,0,2.08.96,2.24,1.92v.32Z"/>
      <path class="cls-29" d="m470.5,228.56c0,6-5.04,16.24-19.92,16.24-11.68,0-20.64-9.68-20.64-22.4s9.12-22.32,20.64-22.32,16.8,7.12,18.08,16l-25.28,11.2c.56,7.2,4.32,10.72,9.84,10.72,4.48,0,8.24-2.96,8.24-6.16,0-.88-.64-1.84-1.6-1.84-.56,0-.96.48-1.44.48-.56,0-1.04-.48-1.04-1.68,0-2.8,2.4-6.64,6.72-6.64,2.08,0,4.24.88,5.44,2.8.64,1.04.96,2.24.96,3.6Zm-12.8-16.08c-.88-4.08-3.92-5.6-6.16-5.6-4.08,0-8.16,3.84-8.4,12.08l14.56-6.48Z"/>
    </g>
  </g>
  <g id="Layer_5" data-name="Layer 5">
    <g id="Logo-2" data-name="Logo">
      <g>
        <ellipse class="cls-22" cx="248.99" cy="346.03" rx="7.23" ry="26.32" transform="translate(-139.66 170.85) rotate(-30)"/>
        <ellipse class="cls-14" cx="241.76" cy="352.22" rx="7.23" ry="26.32" transform="translate(-178.25 274.12) rotate(-45)"/>
        <ellipse class="cls-14" cx="274.57" cy="350.09" rx="26.32" ry="7.23" transform="translate(-169.52 377.16) rotate(-55.38)"/>
        <ellipse class="cls-22" cx="278.7" cy="354.22" rx="26.32" ry="7.23" transform="translate(-164.91 274.52) rotate(-41.62)"/>
      </g>
      <g>
        <rect class="cls-5" x="228.55" y="408.08" width="31.15" height="32.39"/>
        <rect class="cls-12" x="261.9" y="408.07" width="31.15" height="32.39"/>
        <rect class="cls-24" x="261.9" y="373.48" width="31.15" height="32.39"/>
        <rect class="cls-9" x="228.55" y="373.48" width="31.15" height="32.39"/>
      </g>
      <path class="cls-10" d="m276.49,397.66c-4.34-4.34-11.44-4.41-15.86-.16-4.42-4.25-11.53-4.17-15.86.16-4.34,4.34-4.41,11.44-.16,15.86l16.03,16.03,16.03-16.03c4.25-4.42,4.17-11.53-.16-15.86Z"/>
      <path class="cls-21" d="m257.72,315.09l-4.27,3.8-3.8-4.27c-1-1.18-.88-2.97.28-3.99s2.95-.94,4,.2c1.18-1,2.97-.88,3.99.28s.94,2.95-.2,4Z"/>
      <path class="cls-10" d="m262.13,335.52l-4.83,3.06-3.06-4.83c-.8-1.32-.39-3.07.92-3.9,1.31-.83,3.06-.45,3.91.84,1.32-.8,3.07-.39,3.9.92s.45,3.06-.84,3.91Z"/>
      <path class="cls-13" d="m270.37,322.33l-2.49,5.15-5.15-2.49c-1.38-.7-1.95-2.4-1.27-3.79s2.36-2,3.77-1.35c.7-1.38,2.4-1.95,3.79-1.27s2,2.36,1.35,3.77Z"/>
    </g>
    <g>
      <path class="cls-10" d="m340.9,443.26c-.8,1.52-2.16,1.68-3.12,1.2-.8-.48-1.28-1.44-.88-2.4,0,0,1.6-1.12-4.8-1.12h-35.04c-1.44,0-2.32-1.12-2.32-2.24,0-1.04.72-2.08,2.32-2,0,0,4.16-.32,4.16-3.52v-48.64c0-3.28-4.48-3.28-4.48-3.28-1.6,0-2.32-1.12-2.24-2.24.08-1.04.88-2.08,2.24-2.08h21.76c1.6,0,2.32.96,2.24,2,0,1.12-.88,2.32-2.24,2.32,0,0-4.56.08-4.56,3.6l-.08,46.4h24.64c4.48,0,7.04-6.24,7.04-6.24.88-1.28,2-1.52,2.88-1.12.96.48,1.6,1.92.72,3.6l-8.24,15.76Z"/>
      <path class="cls-10" d="m368.98,442.14c-11.52,0-20.4-9.68-20.4-22.4s9.04-22.32,20.4-22.32,20.72,9.92,20.72,22.32-9.28,22.4-20.72,22.4Zm0-37.12c-5.84,0-7.2,6.96-7.2,15.6,0,7.84,1.76,14.56,7.36,14.56,5.92,0,7.68-6.8,7.68-15.12s-1.68-15.04-7.84-15.04Z"/>
      <path class="cls-10" d="m436.66,400.78c0,1.04-.64,2.08-2.24,2.08,0,0-.24-.08-.56-.08-.8.08-2.72.4-3.92,3.36l-14.16,34.8h-11.36l-13.92-34.8c-1.2-2.88-2.96-3.36-3.92-3.36-.32,0-.56.08-.56.08-1.52,0-2.24-1.04-2.24-2.08,0-1.12.8-2.24,2.24-2.24h19.2c1.6,0,2.24.96,2.24,2,0,3.04-3.6,1.2-3.6,4.08,0,.48.16,1.12.48,1.84l8.96,21.36,8.88-21.36c.32-.8.48-1.44.48-1.92,0-2.8-3.6-.96-3.6-4.08,0-.96.64-1.92,2.32-1.92h13.04c1.28,0,2.08.96,2.24,1.92v.32Z"/>
      <path class="cls-10" d="m471.22,425.9c0,6-5.04,16.24-19.92,16.24-11.68,0-20.64-9.68-20.64-22.4s9.12-22.32,20.64-22.32,16.8,7.12,18.08,16l-25.28,11.2c.56,7.2,4.32,10.72,9.84,10.72,4.48,0,8.24-2.96,8.24-6.16,0-.88-.64-1.84-1.6-1.84-.56,0-.96.48-1.44.48-.56,0-1.04-.48-1.04-1.68,0-2.8,2.4-6.64,6.72-6.64,2.08,0,4.24.88,5.44,2.8.64,1.04.96,2.24.96,3.6Zm-12.8-16.08c-.88-4.08-3.92-5.6-6.16-5.6-4.08,0-8.16,3.84-8.4,12.08l14.56-6.48Z"/>
    </g>
    <g>
      <path class="cls-24" d="m33.08,441.34H2.84c-1.44,0-2.32-1.2-2.32-2.32,0-1.04.72-1.92,2.32-1.92,0,0,4.16-.32,4.16-3.52v-48.64c0-3.28-4.48-3.28-4.48-3.28-1.52,0-2.24-1.04-2.24-2.08,0-1.12.8-2.24,2.24-2.24h28.08c9.28,0,16,3.36,16,14.24,0,9.12-4,13.04-9.12,13.76,5.52.64,13.6,7.2,13.44,17.04-.16,8.96-6.24,18.96-17.84,18.96Zm-4.88-58.64l-6.56-.08c-1.36,0-1.92.56-1.92,1.92l-.08,19.28h8.16c5.92,0,8.24-5.36,8.24-10.56.08-5.6-2.24-10.56-7.84-10.56Zm.16,27.12h-8.64v24c0,1.28.72,1.84,1.68,1.84h7.04c9.04,0,10.64-6.96,10.56-14,0-6.72-3.68-11.84-10.64-11.84Z"/>
      <path class="cls-24" d="m71.96,442.54c-11.52,0-20.4-9.68-20.4-22.4s9.04-22.32,20.4-22.32,20.72,9.92,20.72,22.32-9.28,22.4-20.72,22.4Zm0-37.12c-5.84,0-7.2,6.96-7.2,15.6,0,7.84,1.76,14.56,7.36,14.56,5.92,0,7.68-6.8,7.68-15.12s-1.68-15.04-7.84-15.04Z"/>
      <path class="cls-24" d="m141.08,441.34h-23.28c-1.36,0-2.16-.96-2.32-2-.16-1.12.56-2.32,2.32-2.24,0,0,3.52-1.12,1.44-3.52l-6.56-7.36-6.64,7.36c-2.16,2.4,1.44,3.52,1.44,3.52,1.76-.08,2.4,1.2,2.24,2.32-.16,1.04-.96,1.92-2.24,1.92h-15.92c-1.44,0-2.16-.96-2.16-2-.08-1.12.64-2.32,2.16-2.32,0,0,1.44.16,4.8-3.52l11.52-12.72-12.64-14.24c-2.96-3.28-4.48-3.28-4.48-3.28-1.6,0-2.32-1.12-2.24-2.16,0-1.12.8-2.16,2.24-2.16h22.32c1.6,0,2.24.8,2.32,1.76.08,1.2-.8,2.56-2.32,2.56,0,0-3.2.96-.8,3.6l6.32,7.04,6.32-7.04c2.32-2.64-.88-3.6-.88-3.6-1.36,0-2.24-1.2-2.32-2.32,0-1.04.64-2,2.32-2h15.04c1.2,0,1.92.8,2.16,1.68.24,1.2-.4,2.64-2.16,2.64,0,0-1.6,0-4.48,3.28l-11.28,12.72,12.88,14.24c3.36,3.68,4.88,3.52,4.88,3.52,1.36,0,2.08,1.04,2.16,2.08,0,1.12-.64,2.24-2.16,2.24Z"/>
      <path class="cls-24" d="m180.68,426.3c0,6-5.04,16.24-19.92,16.24-11.68,0-20.64-9.68-20.64-22.4s9.12-22.32,20.64-22.32,16.8,7.12,18.08,16l-25.28,11.2c.56,7.2,4.32,10.72,9.84,10.72,4.48,0,8.24-2.96,8.24-6.16,0-.88-.64-1.84-1.6-1.84-.56,0-.96.48-1.44.48-.56,0-1.04-.48-1.04-1.68,0-2.8,2.4-6.64,6.72-6.64,2.08,0,4.24.88,5.44,2.8.64,1.04.96,2.24.96,3.6Zm-12.8-16.08c-.88-4.08-3.92-5.6-6.16-5.6-4.08,0-8.16,3.84-8.4,12.08l14.56-6.48Z"/>
      <path class="cls-24" d="m223.72,385.89s-2.8,0-2.8,3.28v44.4c0,3.2,3.2,3.52,3.2,3.52,1.12,0,1.84.8,1.84,1.84,0,1.2-.64,2.4-1.84,2.4h-15.92l.08-2.72c-1.68,1.6-5.44,3.52-9.2,3.52-11.36,0-18.4-10.4-18.4-22.48s5.92-21.84,17.28-21.84c3.76,0,7.28,1.12,10.24,2.96l.08-11.6c0-5.6-5.44-1.6-5.36-5.44,0-1.04.8-2.16,2.32-2.16h18.48c1.44,0,2.24,1.12,2.24,2.16s-.56,2.16-2.24,2.16Zm-22.08,18.56c-6.16,0-7.76,6.64-7.76,15.04s1.76,15.12,7.68,15.12c5.12,0,6.48-7.36,6.48-14.8s-1.52-15.36-6.4-15.36Z"/>
    </g>
  </g>
  <g id="Colors">
    <rect class="cls-17" x="251.6" y="534.89" width="55.79" height="58.02"/>
    <rect class="cls-7" x="340.6" y="534.89" width="55.79" height="58.02"/>
    <rect class="cls-21" x="162.6" y="534.89" width="55.79" height="58.02"/>
    <rect class="cls-19" x="73.38" y="534.6" width="55.79" height="58.02"/>
    <text class="cls-1" transform="translate(221.54 285.99)"><tspan class="cls-5" x="0" y="0">B</tspan><tspan class="cls-6" x="8.03" y="0">u</tspan><tspan class="cls-3" x="15.37" y="0">e</tspan><tspan class="cls-4" x="21.79" y="0">n</tspan><tspan class="cls-5" x="29.23" y="0">o ParkJF</tspan><tspan class="cls-27" x="81.98" y="0"> </tspan></text>
    <text class="cls-28" transform="translate(73.38 610.42)"><tspan class="cls-32" x="0" y="0">P</tspan><tspan x="3.58" y="0">AN</tspan><tspan class="cls-26" x="13.74" y="0">T</tspan><tspan x="17.5" y="0">ONE P 68-1</tspan></text>
    <text class="cls-28" transform="translate(163.58 610.42)"><tspan class="cls-32" x="0" y="0">P</tspan><tspan x="3.58" y="0">AN</tspan><tspan class="cls-26" x="13.74" y="0">T</tspan><tspan x="17.5" y="0">ONE P 59-11</tspan></text>
    <text class="cls-28" transform="translate(251.24 610.42)"><tspan class="cls-32" x="0" y="0">P</tspan><tspan x="3.58" y="0">AN</tspan><tspan class="cls-26" x="13.74" y="0">T</tspan><tspan x="17.5" y="0">ONE P 14-7</tspan></text>
    <text class="cls-28" transform="translate(340.66 610.42)"><tspan class="cls-32" x="0" y="0">P</tspan><tspan x="3.58" y="0">AN</tspan><tspan class="cls-26" x="13.74" y="0">T</tspan><tspan x="17.5" y="0">ONE P 28-1</tspan></text>
    <text class="cls-2" transform="translate(219.66 474.28)"><tspan x="0" y="0">B</tspan><tspan class="cls-31" x="8.03" y="0">u</tspan><tspan class="cls-8" x="15.37" y="0">e</tspan><tspan class="cls-11" x="21.79" y="0">n</tspan><tspan x="29.23" y="0">o ParkJF </tspan></text>
  </g>
</svg>