<?xml version="1.0" encoding="utf-8"?>
<!-- Generator: Adobe Adobe Illustrator 24.2.0, SVG Export Plug-In . SVG Version: 6.00 Build 0)  -->
<svg version="1.1" xmlns="http://www.w3.org/2000/svg" xmlns:xlink="http://www.w3.org/1999/xlink" x="0px" y="0px" width="1920px"
	 height="1080px" viewBox="0 0 1920 1080" style="enable-background:new 0 0 1920 1080;" xml:space="preserve">
<style type="text/css">
	.st0{display:none;}
	.st1{display:inline;opacity:0.9882;fill:#E270FF;}
	.st2{fill:#FFAC54;}
	.st3{display:inline;fill:#FF70A5;}
	.st4{display:inline;fill:#FF8F57;}
	.st5{display:inline;fill:#FF70A5;stroke:#000000;stroke-miterlimit:10;}
	.st6{display:inline;fill:#FFB570;stroke:#000000;stroke-miterlimit:10;}
	.st7{display:inline;fill:#E770FF;stroke:#000000;stroke-miterlimit:10;}
	.st8{display:inline;fill:#FFDF4F;stroke:#000000;stroke-miterlimit:10;}
</style>
<g id="Layer_4" class="st0">
	<path class="st1" d="M0.01,184.77c45.96-45.96,105.77-100.2,216.61-107.63c32.57-2.18,147.55,9.36,299.81,104.99
		s147.5,133.35,328.58,133.35c73.38,0,190.19-140.48,265.68-106.78c181.73,81.13,204.19,12.43,272.89-56.28
		c124.86-124.86,224.68-171.76,331.45-110.48c106.77,61.28,158.01,132.31,204.97,159.26c46.95,26.95,0,873.02,0,873.02
		s-1924.64,13-1920,0C4.65,1061.22,0.01,184.77,0.01,184.77z"/>
</g>
<g id="Layer_2">
	<path class="st2" d="M2.54,484.98c0,0,170.57-265.2,316.6-156.99c136.94,101.48,232.25-5.35,232.25-5.35S635.97,233.45,750,204.8
		s230.55,21.35,318.24,102.24c147.21,135.79,135.41-26.67,247.68,16.63c124.32,47.95,147.14-124.56,337.66-68.2
		c120.07,35.52-6.55,153.04,123.97,163.25C1840.85,423.68,1920,340,1920,340l2.17,740.91H2.17"/>
</g>
<g id="Layer_1" class="st0">
	<path class="st3" d="M1.64,234.81c0,0,153.2-304.11,593.85-160.39c208.65,68.06,566.94,399.23,704.68,274.6
		c134.39-121.59,366.27-308.19,434.51-134.36C1787.92,350.29,1920,344.7,1920,344.7v737.77H0L1.64,234.81z"/>
</g>
<g id="Layer_3" class="st0">
	<path class="st4" d="M-2.05,96.15c116.89-67.38,126.8,54.16,279.06,64.26C429.27,170.52,426.4,56.42,542.45,94.6
		c164.03,53.97,106.76,163.19,228.39,108.68c168.3-75.42,135.14,84.61,308.24,62.89c171.82-21.56,191.67-150.05,315.46-179.36
		c66.53-15.75,43.46,72.28,189.52,49.62c177.22-27.49,178.34-96.32,270.25-37.93s63.62,181.07,63.62,181.07V1080h-1920"/>
</g>
<g id="Layer_5" class="st0">
	<path class="st3" d="M1920,756.45c-66.12,3.03-231.68-24.22-234.19-94.55c-3.42-95.85-102.69-66.99-110.1-131.9
		c-12.17-106.62,189.5-119.57,136.92-263.78c-64.25-176.21-269.38-52.45-288.82,19.29c-19.24,71.01,65.46,199.03,9.99,270.41
		c-55.19,71.02-43.69,202.63-117.01,184.09c-164-41.47,180.05-138.58-121.09-310.09c-52.46-29.88-61.86-164.48-127.68-155.02
		c-59,8.48-67.67,166.86-38.03,278.34c20.78,78.16-26.66,227.83-119.6,192.94c-173.89-65.29-58.94-250.92-179.24-339.95
		c-81.68-60.45,134.3-178.98-73.46-318.25c-66.58-44.63-150.62-59.61-212.18,1.94c-87.29,87.29,237.53,326.22,96.59,355.31
		C351.02,484.65,346.18,308.04,197.65,510C74.67,677.23,204.01,971.96,30,893.8C-77.85,845.36,0,598.92,0,598.92L0,540L1.11,1.24
		L1920,0l0,160.48l-0.76,505.03L1920,756.45z"/>
</g>
<g id="Layer_6" class="st0">
	<path class="st5" d="M683.41-2.26c0,0-90.13,10.59-77.04,101.07c7.79,53.87-61.72,149.99-79.04,172.33
		c-127.84,164.8,12.14,253.76,39.19,314.69c23.88,53.79-29.97,26.62-8.01,92.67c12.79,38.48-60.29,71.14-36.23,143.49
		c14.45,43.45,49.53,79.4,23.41,176.31c-27.59,102.36,114.43,84.71,114.43,84.71l697.89-7.19v-1080"/>
</g>
<g id="Layer_7" class="st0">
	<path class="st6" d="M1075.94-13.3c0,0-290.81-33.26-284.14,129.04c6.67,162.3,65.2,80.56,61.25,186.75
		c-3.94,106.19-124.17,94.66-84.75,228.1s72.51,53.29,92.88,135.66c20.37,82.37-75.1,98.12-96.72,212.82s45.25,180.15,90.62,193.94
		s171.94,2.93,171.94,2.93l498.52-0.89v-1080L1075.94-13.3z"/>
</g>
<g id="Layer_8" class="st0">
</g>
<g id="Layer_9" class="st0">
	<path class="st7" d="M1374.57-6.25c0,0-83.25,28.03-101.62,78.24c-22.14,60.49-176.04,125.1-111.37,260.99
		c8.56,17.98,202.32,152.95,32.84,169.81c-90.2,8.97-123.51,127.06-70.02,231.92c5.29,10.37-18.84,32.91-32.94,57.55
		c-30.63,53.55-41.07,151.3,20.45,232.49c69.76,92.05,624.9,49.7,624.9,49.7V-7.87L1374.57-6.25z"/>
</g>
<g id="Layer_10" class="st0">
	<path class="st8" d="M1802.49-2.18c0,0-185.58-57.85-227.52,55.67s-33.99,171.44-6.78,279.33
		c27.21,107.89,63.8,114.46,15.95,261.75s-144.41,69.3-181.94,206.27c-37.53,136.97,20.45,221.02,69.24,263.23
		c48.79,42.22,448.57,9.9,448.57,9.9V0L1802.49-2.18z"/>
</g>
<g id="Layer_11" class="st0">
</g>
</svg>
